<svg xmlns="http://www.w3.org/2000/svg" width="1280" height="860" viewBox="0 0 1280 860"><rect width="1280" height="860" fill="#fff"/><rect x="173" y="173" width="170" height="85" fill="#bdbdbd"/><rect x="170" y="170" width="170" height="85" fill="#fff" stroke="#000" stroke-width="1.5"/><line x1="170" y1="180" x2="180" y2="170" stroke="#000" stroke-width="1"/><text x="255.0" y="200.5" font-size="13" text-anchor="middle" font-weight="normal" font-family="Arial, 'Liberation Sans', sans-serif"><tspan x="255.0" dy="0">Собрать РН</tspan><tspan x="255.0" dy="15">на техническом</tspan><tspan x="255.0" dy="15">комплексе</tspan></text><text x="175" y="250" font-size="10" text-anchor="start" font-weight="normal" font-family="Arial, 'Liberation Sans', sans-serif"><tspan x="175" dy="0">$0</tspan></text><text x="335" y="250" font-size="12" text-anchor="end" font-weight="normal" font-family="Arial, 'Liberation Sans', sans-serif"><tspan x="335" dy="0">A21</tspan></text><rect x="423" y="293" width="170" height="85" fill="#bdbdbd"/><rect x="420" y="290" width="170" height="85" fill="#fff" stroke="#000" stroke-width="1.5"/><line x1="420" y1="300" x2="430" y2="290" stroke="#000" stroke-width="1"/><text x="505.0" y="320.5" font-size="13" text-anchor="middle" font-weight="normal" font-family="Arial, 'Liberation Sans', sans-serif"><tspan x="505.0" dy="0">Транспортировать</tspan><tspan x="505.0" dy="15">РН на стартовый</tspan><tspan x="505.0" dy="15">комплекс</tspan></text><text x="425" y="370" font-size="10" text-anchor="start" font-weight="normal" font-family="Arial, 'Liberation Sans', sans-serif"><tspan x="425" dy="0">$0</tspan></text><text x="585" y="370" font-size="12" text-anchor="end" font-weight="normal" font-family="Arial, 'Liberation Sans', sans-serif"><tspan x="585" dy="0">A22</tspan></text><rect x="673" y="413" width="170" height="90" fill="#bdbdbd"/><rect x="670" y="410" width="170" height="90" fill="#fff" stroke="#000" stroke-width="1.5"/><line x1="670" y1="420" x2="680" y2="410" stroke="#000" stroke-width="1"/><text x="755.0" y="443.0" font-size="13" text-anchor="middle" font-weight="normal" font-family="Arial, 'Liberation Sans', sans-serif"><tspan x="755.0" dy="0">Заправить РН</tspan><tspan x="755.0" dy="15">компонентами</tspan><tspan x="755.0" dy="15">топлива</tspan></text><text x="675" y="495" font-size="10" text-anchor="start" font-weight="normal" font-family="Arial, 'Liberation Sans', sans-serif"><tspan x="675" dy="0">$0</tspan></text><text x="835" y="495" font-size="12" text-anchor="end" font-weight="normal" font-family="Arial, 'Liberation Sans', sans-serif"><tspan x="835" dy="0">A23</tspan></text><rect x="933" y="543" width="170" height="85" fill="#bdbdbd"/><rect x="930" y="540" width="170" height="85" fill="#fff" stroke="#000" stroke-width="1.5"/><line x1="930" y1="550" x2="940" y2="540" stroke="#000" stroke-width="1"/><text x="1015.0" y="570.5" font-size="13" text-anchor="middle" font-weight="normal" font-family="Arial, 'Liberation Sans', sans-serif"><tspan x="1015.0" dy="0">Провести</tspan><tspan x="1015.0" dy="15">предстартовый</tspan><tspan x="1015.0" dy="15">контроль систем</tspan></text><text x="935" y="620" font-size="10" text-anchor="start" font-weight="normal" font-family="Arial, 'Liberation Sans', sans-serif"><tspan x="935" dy="0">$0</tspan></text><text x="1095" y="620" font-size="12" text-anchor="end" font-weight="normal" font-family="Arial, 'Liberation Sans', sans-serif"><tspan x="1095" dy="0">A24</tspan></text><polyline points="215,100 215,170" fill="none" stroke="#000" stroke-width="1.2"/><polygon points="215,170 211,159 219,159" fill="#000"/><text x="219" y="113" font-size="11" text-anchor="start" font-weight="normal" font-family="Arial, 'Liberation Sans', sans-serif"><tspan x="219" dy="0">C1</tspan></text><polyline points="215,130 465,130 465,290" fill="none" stroke="#000" stroke-width="1.2"/><polygon points="465,290 461,279 469,279" fill="#000"/><polyline points="215,130 715,130 715,410" fill="none" stroke="#000" stroke-width="1.2"/><polygon points="715,410 711,399 719,399" fill="#000"/><polyline points="215,130 975,130 975,540" fill="none" stroke="#000" stroke-width="1.2"/><polygon points="975,540 971,529 979,529" fill="#000"/><circle cx="215" cy="130" r="2.5" fill="#000"/><text x="222" y="124" font-size="12" text-anchor="start" font-weight="normal" font-family="Arial, 'Liberation Sans', sans-serif"><tspan x="222" dy="0">Регламент подготовки и проведения пусков</tspan></text><polyline points="790,100 790,410" fill="none" stroke="#000" stroke-width="1.2"/><polygon points="790,410 786,399 794,399" fill="#000"/><text x="794" y="113" font-size="11" text-anchor="start" font-weight="normal" font-family="Arial, 'Liberation Sans', sans-serif"><tspan x="794" dy="0">C4</tspan></text><text x="796" y="250" font-size="12" text-anchor="start" font-weight="normal" font-family="Arial, 'Liberation Sans', sans-serif"><tspan x="796" dy="0">Правила учёта</tspan><tspan x="796" dy="14">топлива (сроки</tspan><tspan x="796" dy="14">годности)</tspan></text><polyline points="0,205 170,205" fill="none" stroke="#000" stroke-width="1.2"/><polygon points="170,205 159,201 159,209" fill="#000"/><text x="3" y="201" font-size="11" text-anchor="start" font-weight="normal" font-family="Arial, 'Liberation Sans', sans-serif"><tspan x="3" dy="0">I1</tspan></text><text x="20" y="198" font-size="12" text-anchor="start" font-weight="normal" font-family="Arial, 'Liberation Sans', sans-serif"><tspan x="20" dy="0">Зарегистрированный пуск</tspan></text><polyline points="0,470 670,470" fill="none" stroke="#000" stroke-width="1.2"/><polygon points="670,470 659,466 659,474" fill="#000"/><text x="3" y="466" font-size="11" text-anchor="start" font-weight="normal" font-family="Arial, 'Liberation Sans', sans-serif"><tspan x="3" dy="0">I2</tspan></text><text x="400" y="464" font-size="12" text-anchor="start" font-weight="normal" font-family="Arial, 'Liberation Sans', sans-serif"><tspan x="400" dy="0">Партии топлива</tspan></text><polyline points="60,780 60,740 1020,740" fill="none" stroke="#000" stroke-width="1.2"/><text x="64" y="776" font-size="11" text-anchor="start" font-weight="normal" font-family="Arial, 'Liberation Sans', sans-serif"><tspan x="64" dy="0">M1</tspan></text><polyline points="90,780 90,760 1060,760" fill="none" stroke="#000" stroke-width="1.2"/><text x="94" y="776" font-size="11" text-anchor="start" font-weight="normal" font-family="Arial, 'Liberation Sans', sans-serif"><tspan x="94" dy="0">M2</tspan></text><polyline points="220,740 220,255" fill="none" stroke="#000" stroke-width="1.2"/><polygon points="220,255 216,266 224,266" fill="#000"/><circle cx="220" cy="740" r="2.5" fill="#000"/><polyline points="290,760 290,255" fill="none" stroke="#000" stroke-width="1.2"/><polygon points="290,255 286,266 294,266" fill="#000"/><circle cx="290" cy="760" r="2.5" fill="#000"/><polyline points="470,740 470,375" fill="none" stroke="#000" stroke-width="1.2"/><polygon points="470,375 466,386 474,386" fill="#000"/><circle cx="470" cy="740" r="2.5" fill="#000"/><polyline points="540,760 540,375" fill="none" stroke="#000" stroke-width="1.2"/><polygon points="540,375 536,386 544,386" fill="#000"/><circle cx="540" cy="760" r="2.5" fill="#000"/><polyline points="720,740 720,500" fill="none" stroke="#000" stroke-width="1.2"/><polygon points="720,500 716,511 724,511" fill="#000"/><circle cx="720" cy="740" r="2.5" fill="#000"/><polyline points="790,760 790,500" fill="none" stroke="#000" stroke-width="1.2"/><polygon points="790,500 786,511 794,511" fill="#000"/><circle cx="790" cy="760" r="2.5" fill="#000"/><polyline points="980,740 980,625" fill="none" stroke="#000" stroke-width="1.2"/><polygon points="980,625 976,636 984,636" fill="#000"/><circle cx="980" cy="740" r="2.5" fill="#000"/><polyline points="1050,760 1050,625" fill="none" stroke="#000" stroke-width="1.2"/><polygon points="1050,625 1046,636 1054,636" fill="#000"/><circle cx="1050" cy="760" r="2.5" fill="#000"/><text x="66" y="736" font-size="12" text-anchor="start" font-weight="normal" font-family="Arial, 'Liberation Sans', sans-serif"><tspan x="66" dy="0">Персонал ЦУП (инженеры ТК и заправки)</tspan></text><text x="200" y="756" font-size="12" text-anchor="start" font-weight="normal" font-family="Arial, 'Liberation Sans', sans-serif"><tspan x="200" dy="0">ПО АИС и СУБД</tspan></text><polyline points="340,215 380,215 380,330 420,330" fill="none" stroke="#000" stroke-width="1.2"/><polygon points="420,330 409,326 409,334" fill="#000"/><text x="345" y="208" font-size="11" text-anchor="start" font-weight="normal" font-family="Arial, 'Liberation Sans', sans-serif"><tspan x="345" dy="0">Собранная РН</tspan></text><polyline points="590,335 630,335 630,440 670,440" fill="none" stroke="#000" stroke-width="1.2"/><polygon points="670,440 659,436 659,444" fill="#000"/><text x="596" y="328" font-size="11" text-anchor="start" font-weight="normal" font-family="Arial, 'Liberation Sans', sans-serif"><tspan x="596" dy="0">РН на стартовом</tspan><tspan x="596" dy="13">комплексе</tspan></text><polyline points="840,440 890,440 890,575 930,575" fill="none" stroke="#000" stroke-width="1.2"/><polygon points="930,575 919,571 919,579" fill="#000"/><text x="850" y="432" font-size="11" text-anchor="start" font-weight="normal" font-family="Arial, 'Liberation Sans', sans-serif"><tspan x="850" dy="0">Заправленная РН</tspan></text><polyline points="840,480 1280,480" fill="none" stroke="#000" stroke-width="1.2"/><polygon points="1280,480 1269,476 1269,484" fill="#000"/><text x="1277" y="476" font-size="11" text-anchor="end" font-weight="normal" font-family="Arial, 'Liberation Sans', sans-serif"><tspan x="1277" dy="0">O2</tspan></text><text x="1030" y="474" font-size="11" text-anchor="start" font-weight="normal" font-family="Arial, 'Liberation Sans', sans-serif"><tspan x="1030" dy="0">Сведения о расходе топлива</tspan></text><polyline points="1100,580 1280,580" fill="none" stroke="#000" stroke-width="1.2"/><polygon points="1280,580 1269,576 1269,584" fill="#000"/><text x="1277" y="576" font-size="11" text-anchor="end" font-weight="normal" font-family="Arial, 'Liberation Sans', sans-serif"><tspan x="1277" dy="0">O1</tspan></text><text x="1140" y="574" font-size="11" text-anchor="start" font-weight="normal" font-family="Arial, 'Liberation Sans', sans-serif"><tspan x="1140" dy="0">РН готова к пуску</tspan></text><polyline points="1100,610 1130,610 1130,700 130,700 130,235 170,235" fill="none" stroke="#000" stroke-width="1.2"/><polygon points="170,235 159,231 159,239" fill="#000"/><text x="140" y="695" font-size="11" text-anchor="start" font-weight="normal" font-family="Arial, 'Liberation Sans', sans-serif"><tspan x="140" dy="0">Замечания предстартового контроля (возврат на доработку)</tspan></text><rect x="1" y="1" width="1278" height="858" fill="none" stroke="#000" stroke-width="1.5"/><line x1="0" y1="100" x2="1280" y2="100" stroke="#000" stroke-width="1.5"/><line x1="0" y1="780" x2="1280" y2="780" stroke="#000" stroke-width="1.5"/><line x1="210" y1="0" x2="210" y2="100" stroke="#000" stroke-width="1"/><line x1="630" y1="0" x2="630" y2="100" stroke="#000" stroke-width="1"/><line x1="650" y1="0" x2="650" y2="100" stroke="#000" stroke-width="1"/><line x1="870" y1="0" x2="870" y2="100" stroke="#000" stroke-width="1"/><line x1="1085" y1="0" x2="1085" y2="100" stroke="#000" stroke-width="1"/><line x1="650" y1="25" x2="1085" y2="25" stroke="#000" stroke-width="1"/><line x1="650" y1="50" x2="1085" y2="50" stroke="#000" stroke-width="1"/><line x1="650" y1="75" x2="1085" y2="75" stroke="#000" stroke-width="1"/><rect x="632" y="3" width="16" height="20" fill="#000" stroke="#000" stroke-width="1"/><text x="6" y="18" font-size="12" text-anchor="start" font-weight="normal" font-family="Arial, 'Liberation Sans', sans-serif"><tspan x="6" dy="0">ИСПОЛЬЗУЕТСЯ В:</tspan></text><text x="105" y="60" font-size="12" text-anchor="middle" font-weight="normal" font-family="Arial, 'Liberation Sans', sans-serif"><tspan x="105" dy="0">Лабораторная</tspan><tspan x="105" dy="14">работа №3</tspan></text><text x="215" y="18" font-size="12" text-anchor="start" font-weight="normal" font-family="Arial, 'Liberation Sans', sans-serif"><tspan x="215" dy="0">АВТОР:  Группа №3</tspan></text><text x="215" y="42" font-size="12" text-anchor="start" font-weight="normal" font-family="Arial, 'Liberation Sans', sans-serif"><tspan x="215" dy="0">ПРОЕКТ:</tspan></text><text x="270" y="42" font-size="12" text-anchor="start" font-weight="normal" font-family="Arial, 'Liberation Sans', sans-serif"><tspan x="270" dy="0">АИС «Центр управления</tspan><tspan x="270" dy="14">космическими пусками»</tspan></text><text x="215" y="92" font-size="12" text-anchor="start" font-weight="normal" font-family="Arial, 'Liberation Sans', sans-serif"><tspan x="215" dy="0">ЗАМЕЧАНИЯ: 1 2 3 4 5 6 7 8 9 10</tspan></text><text x="470" y="18" font-size="12" text-anchor="start" font-weight="normal" font-family="Arial, 'Liberation Sans', sans-serif"><tspan x="470" dy="0">ДАТА:     28.09.2026</tspan></text><text x="470" y="42" font-size="12" text-anchor="start" font-weight="normal" font-family="Arial, 'Liberation Sans', sans-serif"><tspan x="470" dy="0">РЕВИЗИЯ: 28.09.2026</tspan></text><text x="655" y="18" font-size="12" text-anchor="start" font-weight="normal" font-family="Arial, 'Liberation Sans', sans-serif"><tspan x="655" dy="0">РАЗРАБАТЫВАЕТСЯ</tspan></text><text x="655" y="43" font-size="12" text-anchor="start" font-weight="normal" font-family="Arial, 'Liberation Sans', sans-serif"><tspan x="655" dy="0">ЧЕРНОВИК</tspan></text><text x="655" y="68" font-size="12" text-anchor="start" font-weight="normal" font-family="Arial, 'Liberation Sans', sans-serif"><tspan x="655" dy="0">РЕКОМЕНДОВАНО</tspan></text><text x="655" y="93" font-size="12" text-anchor="start" font-weight="normal" font-family="Arial, 'Liberation Sans', sans-serif"><tspan x="655" dy="0">ПУБЛИКАЦИЯ</tspan></text><text x="875" y="18" font-size="12" text-anchor="start" font-weight="normal" font-family="Arial, 'Liberation Sans', sans-serif"><tspan x="875" dy="0">ЧИТАТЕЛЬ</tspan></text><text x="1080" y="18" font-size="12" text-anchor="end" font-weight="normal" font-family="Arial, 'Liberation Sans', sans-serif"><tspan x="1080" dy="0">ДАТА</tspan></text><text x="1092" y="22" font-size="14" text-anchor="start" font-weight="normal" font-family="Arial, 'Liberation Sans', sans-serif"><tspan x="1092" dy="0">КОНТЕКСТ:</tspan></text><rect x="1110" y="40" width="22" height="11" fill="none" stroke="#000" stroke-width="1"/><rect x="1142" y="49" width="22" height="11" fill="#000" stroke="#000" stroke-width="1"/><rect x="1174" y="58" width="22" height="11" fill="none" stroke="#000" stroke-width="1"/><rect x="1206" y="67" width="22" height="11" fill="none" stroke="#000" stroke-width="1"/><rect x="1238" y="76" width="22" height="11" fill="none" stroke="#000" stroke-width="1"/><line x1="250" y1="780" x2="250" y2="860" stroke="#000" stroke-width="1"/><line x1="1020" y1="780" x2="1020" y2="860" stroke="#000" stroke-width="1"/><text x="6" y="802" font-size="12" text-anchor="start" font-weight="normal" font-family="Arial, 'Liberation Sans', sans-serif"><tspan x="6" dy="0">Ветка: A2</tspan></text><text x="256" y="802" font-size="12" text-anchor="start" font-weight="normal" font-family="Arial, 'Liberation Sans', sans-serif"><tspan x="256" dy="0">Название:</tspan></text><text x="635" y="830" font-size="15" text-anchor="middle" font-weight="normal" font-family="Arial, 'Liberation Sans', sans-serif"><tspan x="635" dy="0">Подготовить РН к пуску</tspan></text><text x="1026" y="802" font-size="12" text-anchor="start" font-weight="normal" font-family="Arial, 'Liberation Sans', sans-serif"><tspan x="1026" dy="0">Номер: 3</tspan></text></svg>